<?xml version="1.0" encoding="UTF-8"?>
<svg id="Layer_1" xmlns="http://www.w3.org/2000/svg" version="1.1" viewBox="-50 -20 1000 240">
  <!-- Generator: Adobe Illustrator 29.6.1, SVG Export Plug-In . SVG Version: 2.1.1 Build 9)  -->
  <defs>
    <style>
      .st0 {
        fill: #fff;
      }

      .st1 {
        fill: #d2e1ec;
      }

      .st2 {
        fill: #00fc00;
      }
    </style>
  </defs>
  <g>
    <g id="LINE">
      <path class="st2" d="M102.47,175.84l-63.96-36.93v-73.86l71.38,41.21c-4.93,11.69-7.42,25.83-7.42,42.8v26.78Z"/>
    </g>
    <g id="LINE1" data-name="LINE">
      <path class="st1" d="M40.81,61.08l63.96-36.93,63.96,36.93c-28.56,7.65-47.03,21.12-56.92,41L40.81,61.08Z"/>
    </g>
    <g id="SPLINE">
      <path class="st0" d="M107.07,149.07v26.78l15.3-8.83v-17.94c0-2.73.07-5.38.22-7.93s.36-5.01.65-7.37.65-4.62,1.08-6.77c.43-2.16.93-4.21,1.5-6.17s1.2-3.81,1.89-5.58,1.45-3.43,2.27-5.02,1.71-3.09,2.66-4.53c.95-1.44,1.97-2.81,3.07-4.12,1.1-1.32,2.28-2.58,3.55-3.8s2.63-2.39,4.09-3.53c1.46-1.14,3.03-2.23,4.71-3.29,1.68-1.06,3.48-2.08,5.39-3.06,1.91-.98,3.95-1.92,6.1-2.81s4.42-1.74,6.81-2.54c1.51-.5,3.06-.99,4.66-1.45v-15.87c-.37.1-.74.19-1.11.29-2.9.78-5.7,1.62-8.4,2.52s-5.31,1.88-7.82,2.91c-2.5,1.04-4.91,2.14-7.21,3.32-2.3,1.17-4.49,2.42-6.58,3.73s-4.07,2.7-5.94,4.15c-1.88,1.46-3.65,2.98-5.31,4.58-1.67,1.6-3.23,3.27-4.69,5.02s-2.82,3.58-4.08,5.48-2.43,3.89-3.49,5.95-2.04,4.21-2.92,6.44c-.88,2.23-1.66,4.54-2.36,6.93-.69,2.39-1.29,4.87-1.8,7.42s-.93,5.19-1.26,7.9c-.33,2.71-.58,5.5-.74,8.36-.16,2.86-.24,5.8-.24,8.8Z"/>
    </g>
  </g>
  <g>
    <path class="st0" d="M575.18,66.91c0-4.37-3.54-7.92-7.91-7.92s-7.92,3.54-7.92,7.92,3.54,7.92,7.92,7.92,7.91-3.54,7.91-7.92"/>
    <path class="st0" d="M283.85,88.67c-3.72,0-7.35.68-10.89,2.04-3.54,1.36-6.72,3.4-9.53,6.12-2.81,2.72-5.08,6.17-6.81,10.35-1.73,4.17-2.59,9.08-2.59,14.7,0,4.72.68,9.1,2.04,13.14,1.36,4.04,3.4,7.51,6.12,10.41,2.72,2.91,6.15,5.2,10.28,6.87,4.13,1.68,8.92,2.52,14.36,2.52,4.45,0,8.44-.41,11.98-1.22,3.54-.82,6.24-1.92,7.6-2.65l-1.75-9.19c-1.45.73-3.58,1.41-6.4,2.04-2.81.64-6.22.95-10.21.95-6.99,0-12.41-1.7-16.27-5.11-3.86-3.4-6.01-8.37-6.47-14.9h45.19v-3.95c0-10.8-2.31-18.85-6.94-24.16-4.63-5.31-11.21-7.96-19.74-7.96M265.61,115.62c.27-2.18.86-4.31,1.77-6.4.91-2.09,2.13-3.95,3.68-5.58,1.54-1.63,3.38-2.95,5.51-3.95,2.13-1,4.51-1.5,7.15-1.5,4.63,0,8.35,1.57,11.16,4.7,2.81,3.13,4.22,7.37,4.22,12.73h-33.49Z"/>
    <path class="st0" d="M695.76,88.83c-1.11-.05-2.04,0-2.04,0-7.43.33-13.13,2.49-17.09,6.49-4.31,4.36-6.47,11.35-6.47,20.97v37.04h11.17v-35c0-4.09.36-7.4,1.09-9.94.73-2.54,1.75-4.52,3.07-5.93,1.32-1.41,2.9-2.38,4.77-2.93,0,0,4.49-1.31,8.99,0,1.86.54,3.45,1.52,4.77,2.93,1.32,1.41,2.34,3.38,3.06,5.93.73,2.54,1.09,5.85,1.09,9.94v35h11.17v-37.04c0-9.62-2.16-16.61-6.47-20.97-3.96-4-9.65-6.16-17.09-6.49"/>
    <path class="st0" d="M371.13,97.93c-2.31-2.9-5.15-5.17-8.51-6.81-3.36-1.63-7.17-2.45-11.43-2.45-3.18,0-6.06.43-8.64,1.3-2.59.86-4.56,1.7-5.92,2.51v-33.48h-11.3v92.56c2.36.73,5.49,1.45,9.39,2.18,3.9.73,8.35,1.09,13.34,1.09,4.53,0,8.67-.77,12.38-2.31,3.72-1.54,6.9-3.74,9.53-6.6,2.63-2.86,4.67-6.33,6.12-10.41,1.45-4.08,2.18-8.67,2.18-13.75s-.61-9.37-1.84-13.41c-1.22-4.04-3-7.51-5.31-10.41M361.4,139.1c-3.54,3.86-8.44,5.79-14.7,5.79-1.54,0-3.18-.11-4.9-.34-1.72-.23-3.45-.57-5.17-1.02v-40.02c1.27-1.18,3.13-2.29,5.58-3.34,2.45-1.04,4.99-1.56,7.62-1.56,2.99,0,5.56.59,7.69,1.77,2.13,1.18,3.88,2.79,5.24,4.83,1.36,2.04,2.36,4.49,2.99,7.35.63,2.86.95,5.92.95,9.19,0,7.71-1.77,13.5-5.31,17.35"/>
    <path class="st0" d="M420.52,88.67c-3.72,0-7.35.68-10.89,2.04-3.54,1.36-6.72,3.4-9.53,6.12-2.81,2.72-5.08,6.17-6.81,10.35-1.73,4.17-2.59,9.08-2.59,14.7,0,4.72.68,9.1,2.04,13.14,1.36,4.04,3.4,7.51,6.13,10.41,2.72,2.91,6.14,5.2,10.28,6.87,4.13,1.68,8.92,2.52,14.36,2.52,4.45,0,8.44-.41,11.98-1.22,3.54-.82,6.24-1.92,7.6-2.65l-1.75-9.19c-1.45.73-3.59,1.41-6.4,2.04-2.81.64-6.22.95-10.21.95-6.99,0-12.41-1.7-16.27-5.11-3.86-3.4-6.01-8.37-6.46-14.9h45.19v-3.95c0-10.8-2.31-18.85-6.94-24.16-4.63-5.31-11.21-7.96-19.74-7.96M402.28,115.62c.27-2.18.86-4.31,1.77-6.4.9-2.09,2.13-3.95,3.67-5.58,1.54-1.63,3.38-2.95,5.51-3.95,2.13-1,4.51-1.5,7.15-1.5,4.63,0,8.35,1.57,11.16,4.7,2.81,3.13,4.22,7.37,4.22,12.73h-33.49Z"/>
    <path class="st0" d="M648.99,97.72c-2.54-2.86-5.58-5.08-9.12-6.67-3.54-1.59-7.4-2.38-11.57-2.38s-7.87.8-11.36,2.38c-3.49,1.59-6.51,3.81-9.05,6.67-2.54,2.86-4.51,6.33-5.92,10.41-1.41,4.09-2.11,8.62-2.11,13.61s.7,9.51,2.11,13.54c1.41,4.04,3.38,7.51,5.92,10.41,2.54,2.91,5.56,5.15,9.05,6.74,3.49,1.59,7.28,2.38,11.36,2.38s8.03-.8,11.57-2.38c3.54-1.59,6.58-3.83,9.12-6.74,2.54-2.9,4.51-6.37,5.92-10.41,1.41-4.03,2.11-8.55,2.11-13.54s-.7-9.53-2.11-13.61c-1.41-4.08-3.38-7.55-5.92-10.41M640.82,138.56c-3.09,4.13-7.26,6.19-12.52,6.19s-9.28-2.06-12.32-6.19c-3.04-4.13-4.56-9.73-4.56-16.81s1.52-12.82,4.56-16.95c3.04-4.13,7.15-6.19,12.32-6.19s9.44,2.07,12.52,6.19c3.08,4.13,4.63,9.78,4.63,16.95s-1.55,12.68-4.63,16.81"/>
    <path class="st0" d="M774.65,122.16c-2.81-1.64-5.85-3.02-9.12-4.15-3.27-1.13-6.31-2.24-9.12-3.33-2.81-1.09-5.15-2.29-7.01-3.61-1.86-1.31-2.79-2.93-2.79-4.83,0-5.35,4.9-8.03,14.7-8.03,1.72,0,3.52.09,5.38.27,1.86.18,3.61.43,5.24.75,1.63.32,3.08.68,4.36,1.09,1.27.41,2.27.8,3,1.16l2.95-9.55c-2.63-.82-6.69-2-10.37-2.5-3.67-.5-7.24-.75-10.69-.75-8.8,0-15.27,1.7-19.4,5.11-4.13,3.4-6.19,7.65-6.19,12.73,0,3.63.93,6.58,2.79,8.85,1.86,2.27,4.17,4.17,6.94,5.72,2.77,1.54,5.79,2.84,9.05,3.88,3.27,1.05,6.28,2.11,9.05,3.2,2.77,1.09,5.08,2.36,6.94,3.81,1.86,1.45,2.79,3.31,2.79,5.58,0,5.17-5.13,7.76-15.38,7.76-4,0-7.74-.47-11.23-1.43-3.49-.95-5.75-1.68-8.93-3.13l-3.26,9.73c3.27,1.45,6.72,2.54,10.35,3.27,3.63.73,7.62,1.09,11.98,1.09,9.62,0,16.65-1.57,21.1-4.7,4.44-3.13,6.67-7.55,6.67-13.27,0-3.54-.93-6.47-2.79-8.78-1.86-2.31-4.2-4.29-7.01-5.92"/>
    <path class="st0" d="M205.72,98.74c-8.2,9.31-8,20.79-7.87,30.59l.03,24h11.22l-.03-24.15c-.11-8.08-.27-16.96,5.07-23.03,6.21-7.05,16.43-8.87,27.99-4.12l4.82-10.16c-15.98-6.56-31.86-3.77-41.23,6.87"/>
    <path class="st0" d="M536.01,144.75c-1.73,0-3.22-.23-4.49-.68-1.27-.45-2.34-1.3-3.2-2.52-.86-1.22-1.5-2.83-1.91-4.83-.41-1.99-.61-4.58-.61-7.76V59h-25.95v9.53h14.79v60.44c0,4.27.32,8.01.95,11.23.63,3.22,1.72,5.92,3.27,8.1,1.54,2.18,3.63,3.81,6.26,4.9,2.63,1.09,5.94,1.63,9.94,1.63,1.72,0,3.38-.14,4.97-.41,1.31-.22,2.95-.49,4.11-.77v-9.95c-.12.03-.22.07-.35.1-2.27.64-5.15.96-7.78.96"/>
    <path class="st0" d="M583.05,144.75c-1.72,0-3.22-.23-4.49-.68-1.27-.45-2.34-1.3-3.2-2.52-.86-1.22-1.5-2.83-1.91-4.83-.41-1.99-.61-4.58-.61-7.76v-40.16h-11.16v40.16c0,4.27.32,8.01.95,11.23.63,3.22,1.72,5.92,3.27,8.1,1.54,2.18,3.63,3.81,6.26,4.9,2.63,1.09,5.94,1.63,9.94,1.63,1.72,0,3.38-.14,4.97-.41,1.31-.22,2.96-.49,4.11-.77v-9.95c-.12.03-.22.07-.35.1-2.27.64-5.15.96-7.78.96"/>
    <path class="st0" d="M489.03,144.75c-1.73,0-3.22-.23-4.49-.68-1.27-.45-2.34-1.3-3.2-2.52-.86-1.22-1.5-2.83-1.9-4.83-.41-1.99-.61-4.58-.61-7.76V59h-25.95v9.53h14.79v60.44c0,4.27.32,8.01.95,11.23.63,3.22,1.72,5.92,3.27,8.1,1.54,2.18,3.63,3.81,6.26,4.9,2.63,1.09,5.94,1.63,9.94,1.63,1.72,0,3.38-.14,4.97-.41,1.31-.22,2.96-.49,4.11-.77v-9.95c-.12.03-.23.07-.35.1-2.27.64-5.15.96-7.78.96"/>
    <rect class="st0" x="795.6" y="166.32" width="65.88" height="9.53"/>
  </g>
</svg>