<?xml version="1.0" encoding="UTF-8"?>
<svg xmlns="http://www.w3.org/2000/svg" viewBox="0 0 900 200" fill="none">
<g transform="translate(100, 60) scale(12, 12)">
<path fill-rule="evenodd" clip-rule="evenodd" d="M1.81559 5.16614C1.81559 5.16614 3.42237 2.74655 6.63123 2.49638V1.61906C3.07751 1.90978 0 4.98092 0 4.98092C0 4.98092 1.74284 10.1225 6.63123 10.5933V9.6603C3.04383 9.19982 1.81559 5.16614 1.81559 5.16614Z" fill="white"/>
<path fill-rule="evenodd" clip-rule="evenodd" d="M6.63123 7.80497V8.65927C3.9198 8.16614 3.16743 5.29019 3.16743 5.29019C3.16743 5.29019 4.46909 3.81872 6.63123 3.58023V4.51769C6.62955 4.51769 6.6282 4.51734 6.62685 4.51734C5.49257 4.37817 4.60616 5.45995 4.60616 5.45995C4.60616 5.45995 5.10258 7.28092 6.63123 7.80497Z" fill="white"/>
<path fill-rule="evenodd" clip-rule="evenodd" d="M6.63123 -0.000183105L6.63123 1.61906C6.73529 1.61047 6.8397 1.6036 6.94444 1.59947C10.9851 1.46064 13.6174 4.98092 13.6174 4.98092C13.6174 4.98092 10.5938 8.73281 7.44355 8.73281C7.15493 8.73281 6.88516 8.70531 6.63123 8.65927L6.63123 9.6603C6.84845 9.68848 7.07275 9.70531 7.30749 9.70531C10.2388 9.70531 12.3589 8.17817 14.4116 6.36992C14.7517 6.64793 16.145 7.32456 16.4319 7.62078C14.4799 9.28813 9.93135 10.6318 7.35262 10.6318C7.10441 10.6318 6.86563 10.616 6.63123 10.5933L6.63089 12.0002H17.7723V-0.000183105H6.63123Z" fill="white"/>
<path fill-rule="evenodd" clip-rule="evenodd" d="M6.63123 3.58023L6.63123 2.49638C6.73428 2.48916 6.83835 2.48332 6.94444 2.47989C9.84985 2.38676 11.7564 5.02731 11.7564 5.02731C11.7564 5.02731 9.69729 7.94518 7.49002 7.94518C7.1721 7.94518 6.88752 7.8926 6.63123 7.80497V4.51769C7.76214 4.6572 7.98947 5.16717 8.66977 6.32387L10.1823 5.02284C10.1823 5.02284 9.07828 3.54518 7.21723 3.54518C7.01449 3.54518 6.82117 3.55927 6.63123 3.58023Z" fill="white"/>
<path fill-rule="evenodd" clip-rule="evenodd" d="M37.2952 2.29294L37.2962 9.71666H39.3509V2.29294H37.2952ZM21.131 2.28263V9.71631H23.2043V4.07198L24.8104 4.07267C25.3425 4.07267 25.7214 4.20772 25.9776 4.48676C26.3026 4.84002 26.4353 5.40978 26.4353 6.45239V9.71666H28.4439V5.60944C28.4439 2.67817 26.6128 2.28298 24.8211 2.28298L21.131 2.28263ZM40.6034 2.29294V9.71631H43.9362C45.712 9.71631 46.2916 9.41494 46.9184 8.73934C47.3616 8.26511 47.6479 7.22387 47.6479 6.08607C47.6479 5.04243 47.4054 4.1115 46.9827 3.53178C46.2213 2.49501 45.1247 2.2926 43.4876 2.2926L40.6034 2.29294ZM42.6416 3.90944H43.525C44.8068 3.90944 45.6356 4.49672 45.6356 6.02044C45.6356 7.54415 44.8064 8.13177 43.525 8.13177H42.6416V3.90944ZM34.3322 2.29294L32.6173 8.17645L30.9745 2.29329H28.7564L31.1031 9.71666H34.0648L36.43 2.29329L34.3322 2.29294ZM48.6033 9.71631H50.6584V2.29329H48.6026L48.6033 9.71631ZM54.3633 2.29569L51.4942 9.71391H53.52L53.9743 8.40291H57.3697L57.7995 9.71391H59.9993L57.1081 2.29501L54.3633 2.29569ZM55.6973 3.6493L56.942 7.12456H54.4131L55.6973 3.6493Z" fill="white"/>
</g>
</svg>
