<?xml version="1.0" encoding="UTF-8"?>
<svg xmlns="http://www.w3.org/2000/svg" xmlns:xlink="http://www.w3.org/1999/xlink" width="417px" height="100px" viewBox="0 0 416 100" version="1.1">
<g id="surface1">
<path style=" stroke:none;fill-rule:nonzero;fill:rgb(0%,98.823529%,0%);fill-opacity:1;" d="M 63.425781 81.601562 L 36.820312 66.210938 L 36.820312 35.4375 L 66.515625 52.609375 C 64.464844 57.480469 63.425781 63.371094 63.425781 70.441406 Z M 63.425781 81.601562 "/>
<path style=" stroke:none;fill-rule:nonzero;fill:rgb(82.352942%,88.235295%,92.54902%);fill-opacity:1;" d="M 37.777344 33.785156 L 64.382812 18.394531 L 90.992188 33.785156 C 79.109375 36.972656 71.425781 42.582031 67.3125 50.867188 Z M 37.777344 33.785156 "/>
<path style=" stroke:none;fill-rule:nonzero;fill:rgb(100%,100%,100%);fill-opacity:1;" d="M 65.339844 70.445312 L 65.339844 81.605469 L 71.707031 77.925781 L 71.707031 70.449219 C 71.707031 69.3125 71.734375 68.207031 71.796875 67.144531 C 71.859375 66.082031 71.945312 65.058594 72.066406 64.074219 C 72.1875 63.089844 72.339844 62.148438 72.515625 61.253906 C 72.695312 60.355469 72.902344 59.5 73.140625 58.683594 C 73.378906 57.867188 73.640625 57.097656 73.925781 56.359375 C 74.214844 55.621094 74.53125 54.929688 74.871094 54.265625 C 75.210938 53.605469 75.582031 52.980469 75.976562 52.378906 C 76.375 51.777344 76.796875 51.207031 77.253906 50.664062 C 77.714844 50.113281 78.203125 49.585938 78.730469 49.078125 C 79.261719 48.570312 79.828125 48.082031 80.433594 47.609375 C 81.039062 47.132812 81.695312 46.679688 82.394531 46.238281 C 83.09375 45.796875 83.839844 45.371094 84.636719 44.960938 C 85.429688 44.554688 86.277344 44.164062 87.171875 43.792969 C 88.066406 43.421875 89.011719 43.066406 90.003906 42.734375 C 90.632812 42.523438 91.277344 42.320312 91.945312 42.128906 L 91.945312 35.515625 C 91.789062 35.558594 91.636719 35.597656 91.484375 35.636719 C 90.277344 35.960938 89.113281 36.3125 87.988281 36.6875 C 86.863281 37.0625 85.777344 37.472656 84.734375 37.898438 C 83.695312 38.332031 82.691406 38.792969 81.734375 39.285156 C 80.777344 39.769531 79.867188 40.292969 79 40.835938 C 78.128906 41.382812 77.304688 41.960938 76.527344 42.566406 C 75.746094 43.175781 75.007812 43.808594 74.320312 44.476562 C 73.625 45.140625 72.976562 45.835938 72.367188 46.566406 C 71.761719 47.296875 71.195312 48.058594 70.671875 48.851562 C 70.144531 49.640625 69.660156 50.472656 69.21875 51.328125 C 68.777344 52.1875 68.371094 53.082031 68.003906 54.011719 C 67.636719 54.941406 67.3125 55.902344 67.023438 56.898438 C 66.734375 57.894531 66.484375 58.929688 66.273438 59.992188 C 66.0625 61.054688 65.886719 62.152344 65.75 63.285156 C 65.613281 64.414062 65.507812 65.574219 65.441406 66.765625 C 65.375 67.957031 65.339844 69.183594 65.339844 70.433594 Z M 65.339844 70.445312 "/>
<path style=" stroke:none;fill-rule:nonzero;fill:rgb(100%,100%,100%);fill-opacity:1;" d="M 260.074219 36.210938 C 260.074219 34.390625 258.601562 32.914062 256.785156 32.914062 C 254.964844 32.914062 253.488281 34.386719 253.488281 36.210938 C 253.488281 38.039062 254.960938 39.511719 256.785156 39.511719 C 258.605469 39.511719 260.074219 38.039062 260.074219 36.210938 "/>
<path style=" stroke:none;fill-rule:nonzero;fill:rgb(100%,100%,100%);fill-opacity:1;" d="M 138.882812 45.277344 C 137.335938 45.277344 135.824219 45.5625 134.351562 46.128906 C 132.878906 46.695312 131.554688 47.546875 130.386719 48.679688 C 129.21875 49.8125 128.273438 51.25 127.554688 52.992188 C 126.835938 54.730469 126.476562 56.773438 126.476562 59.117188 C 126.476562 61.082031 126.757812 62.910156 127.324219 64.589844 C 127.890625 66.273438 128.738281 67.722656 129.871094 68.929688 C 131.003906 70.140625 132.429688 71.097656 134.148438 71.792969 C 135.867188 72.492188 137.859375 72.839844 140.121094 72.839844 C 141.972656 72.839844 143.632812 72.671875 145.105469 72.332031 C 146.578125 71.992188 147.699219 71.535156 148.265625 71.230469 L 147.539062 67.398438 C 146.933594 67.703125 146.050781 67.988281 144.875 68.25 C 143.707031 68.515625 142.289062 68.644531 140.628906 68.644531 C 137.722656 68.644531 135.464844 67.9375 133.859375 66.515625 C 132.253906 65.101562 131.359375 63.027344 131.167969 60.308594 L 149.96875 60.308594 L 149.96875 58.664062 C 149.96875 54.164062 149.007812 50.808594 147.082031 48.597656 C 145.15625 46.382812 142.417969 45.277344 138.867188 45.277344 M 131.292969 56.507812 C 131.40625 55.601562 131.652344 54.710938 132.03125 53.839844 C 132.410156 52.972656 132.917969 52.195312 133.5625 51.515625 C 134.203125 50.835938 134.96875 50.289062 135.851562 49.871094 C 136.738281 49.453125 137.730469 49.246094 138.828125 49.246094 C 140.753906 49.246094 142.300781 49.898438 143.46875 51.203125 C 144.640625 52.507812 145.226562 54.273438 145.226562 56.507812 Z M 131.292969 56.507812 "/>
<path style=" stroke:none;fill-rule:nonzero;fill:rgb(100%,100%,100%);fill-opacity:1;" d="M 310.234375 45.347656 C 309.773438 45.324219 309.386719 45.347656 309.386719 45.347656 C 306.296875 45.484375 303.925781 46.382812 302.277344 48.050781 C 300.484375 49.867188 299.585938 52.777344 299.585938 56.789062 L 299.585938 72.222656 L 304.234375 72.222656 L 304.234375 57.636719 C 304.234375 55.933594 304.382812 54.554688 304.6875 53.496094 C 304.992188 52.4375 305.414062 51.613281 305.964844 51.023438 C 306.511719 50.4375 307.171875 50.035156 307.949219 49.804688 C 307.949219 49.804688 309.816406 49.257812 311.6875 49.804688 C 312.460938 50.027344 313.125 50.4375 313.671875 51.023438 C 314.222656 51.613281 314.644531 52.433594 314.945312 53.496094 C 315.25 54.554688 315.398438 55.933594 315.398438 57.636719 L 315.398438 72.222656 L 320.046875 72.222656 L 320.046875 56.789062 C 320.046875 52.777344 319.148438 49.867188 317.355469 48.050781 C 315.707031 46.382812 313.339844 45.484375 310.246094 45.347656 "/>
<path style=" stroke:none;fill-rule:nonzero;fill:rgb(100%,100%,100%);fill-opacity:1;" d="M 175.191406 49.136719 C 174.230469 47.929688 173.046875 46.984375 171.648438 46.300781 C 170.253906 45.621094 168.667969 45.277344 166.894531 45.277344 C 165.570312 45.277344 164.375 45.457031 163.300781 45.820312 C 162.222656 46.179688 161.402344 46.527344 160.839844 46.867188 L 160.839844 32.917969 L 156.136719 32.917969 L 156.136719 71.484375 C 157.117188 71.789062 158.421875 72.085938 160.042969 72.390625 C 161.664062 72.695312 163.515625 72.847656 165.59375 72.847656 C 167.476562 72.847656 169.199219 72.523438 170.742188 71.882812 C 172.289062 71.242188 173.613281 70.324219 174.707031 69.132812 C 175.800781 67.941406 176.648438 66.496094 177.253906 64.796875 C 177.855469 63.097656 178.160156 61.183594 178.160156 59.066406 C 178.160156 56.949219 177.90625 55.164062 177.394531 53.480469 C 176.886719 51.796875 176.148438 50.351562 175.1875 49.140625 M 171.140625 66.292969 C 169.667969 67.898438 167.632812 68.703125 165.027344 68.703125 C 164.386719 68.703125 163.703125 68.660156 162.988281 68.5625 C 162.273438 68.464844 161.554688 68.324219 160.839844 68.136719 L 160.839844 51.460938 C 161.367188 50.972656 162.140625 50.507812 163.160156 50.070312 C 164.179688 49.636719 165.234375 49.421875 166.328125 49.421875 C 167.574219 49.421875 168.640625 49.667969 169.527344 50.160156 C 170.414062 50.648438 171.140625 51.320312 171.707031 52.171875 C 172.273438 53.019531 172.691406 54.042969 172.953125 55.234375 C 173.214844 56.425781 173.347656 57.699219 173.347656 59.0625 C 173.347656 62.273438 172.609375 64.6875 171.136719 66.292969 "/>
<path style=" stroke:none;fill-rule:nonzero;fill:rgb(100%,100%,100%);fill-opacity:1;" d="M 195.734375 45.277344 C 194.1875 45.277344 192.679688 45.5625 191.207031 46.128906 C 189.734375 46.695312 188.410156 47.546875 187.242188 48.679688 C 186.074219 49.8125 185.128906 51.25 184.410156 52.992188 C 183.6875 54.730469 183.332031 56.773438 183.332031 59.117188 C 183.332031 61.082031 183.613281 62.910156 184.179688 64.589844 C 184.746094 66.273438 185.59375 67.722656 186.730469 68.929688 C 187.863281 70.140625 189.285156 71.097656 191.007812 71.792969 C 192.722656 72.492188 194.71875 72.839844 196.980469 72.839844 C 198.832031 72.839844 200.492188 72.671875 201.964844 72.332031 C 203.4375 71.992188 204.558594 71.535156 205.125 71.230469 L 204.398438 67.398438 C 203.792969 67.703125 202.902344 67.988281 201.734375 68.25 C 200.566406 68.515625 199.148438 68.644531 197.488281 68.644531 C 194.578125 68.644531 192.324219 67.9375 190.71875 66.515625 C 189.113281 65.101562 188.21875 63.027344 188.03125 60.308594 L 206.832031 60.308594 L 206.832031 58.664062 C 206.832031 54.164062 205.871094 50.808594 203.945312 48.597656 C 202.019531 46.382812 199.28125 45.277344 195.730469 45.277344 M 188.148438 56.507812 C 188.261719 55.601562 188.507812 54.710938 188.886719 53.839844 C 189.257812 52.972656 189.769531 52.195312 190.410156 51.515625 C 191.050781 50.835938 191.816406 50.289062 192.703125 49.871094 C 193.589844 49.453125 194.578125 49.246094 195.679688 49.246094 C 197.605469 49.246094 199.152344 49.898438 200.320312 51.203125 C 201.488281 52.507812 202.074219 54.273438 202.074219 56.507812 L 188.144531 56.507812 Z M 188.148438 56.507812 "/>
<path style=" stroke:none;fill-rule:nonzero;fill:rgb(100%,100%,100%);fill-opacity:1;" d="M 290.78125 49.050781 C 289.722656 47.859375 288.457031 46.933594 286.984375 46.269531 C 285.511719 45.609375 283.90625 45.277344 282.171875 45.277344 C 280.4375 45.277344 278.898438 45.613281 277.445312 46.269531 C 275.996094 46.933594 274.738281 47.859375 273.683594 49.050781 C 272.625 50.242188 271.804688 51.6875 271.21875 53.386719 C 270.632812 55.089844 270.339844 56.980469 270.339844 59.058594 C 270.339844 61.136719 270.632812 63.019531 271.21875 64.699219 C 271.804688 66.382812 272.625 67.828125 273.683594 69.039062 C 274.738281 70.25 275.996094 71.183594 277.445312 71.847656 C 278.898438 72.507812 280.476562 72.835938 282.171875 72.835938 C 283.871094 72.835938 285.511719 72.503906 286.984375 71.847656 C 288.457031 71.183594 289.722656 70.25 290.78125 69.039062 C 291.835938 67.828125 292.65625 66.382812 293.242188 64.699219 C 293.828125 63.019531 294.121094 61.136719 294.121094 59.058594 C 294.121094 56.980469 293.828125 55.085938 293.242188 53.386719 C 292.65625 51.6875 291.835938 50.242188 290.78125 49.050781 M 287.382812 66.066406 C 286.09375 67.789062 284.359375 68.644531 282.171875 68.644531 C 279.984375 68.644531 278.3125 67.789062 277.046875 66.066406 C 275.78125 64.347656 275.152344 62.011719 275.152344 59.0625 C 275.152344 56.113281 275.78125 53.722656 277.046875 52 C 278.3125 50.277344 280.023438 49.421875 282.171875 49.421875 C 284.324219 49.421875 286.101562 50.285156 287.382812 52 C 288.664062 53.722656 289.308594 56.074219 289.308594 59.0625 C 289.308594 62.050781 288.664062 64.347656 287.382812 66.066406 "/>
<path style=" stroke:none;fill-rule:nonzero;fill:rgb(100%,100%,100%);fill-opacity:1;" d="M 343.054688 59.234375 C 341.886719 58.550781 340.621094 57.976562 339.261719 57.503906 C 337.898438 57.035156 336.636719 56.570312 335.464844 56.117188 C 334.296875 55.664062 333.324219 55.164062 332.550781 54.613281 C 331.777344 54.066406 331.390625 53.390625 331.390625 52.601562 C 331.390625 50.371094 333.429688 49.253906 337.503906 49.253906 C 338.21875 49.253906 338.96875 49.292969 339.742188 49.367188 C 340.515625 49.441406 341.246094 49.546875 341.921875 49.679688 C 342.601562 49.8125 343.203125 49.960938 343.738281 50.132812 C 344.265625 50.304688 344.679688 50.464844 344.984375 50.617188 L 346.210938 46.636719 C 345.117188 46.296875 343.429688 45.804688 341.898438 45.597656 C 340.371094 45.386719 338.886719 45.285156 337.449219 45.285156 C 333.789062 45.285156 331.097656 45.992188 329.378906 47.414062 C 327.664062 48.828125 326.804688 50.601562 326.804688 52.714844 C 326.804688 54.230469 327.191406 55.457031 327.964844 56.402344 C 328.738281 57.351562 329.699219 58.140625 330.851562 58.789062 C 332.003906 59.429688 333.261719 59.972656 334.617188 60.402344 C 335.976562 60.839844 337.230469 61.285156 338.382812 61.738281 C 339.535156 62.191406 340.496094 62.722656 341.269531 63.324219 C 342.042969 63.929688 342.429688 64.703125 342.429688 65.648438 C 342.429688 67.804688 340.296875 68.882812 336.03125 68.882812 C 334.367188 68.882812 332.8125 68.6875 331.359375 68.289062 C 329.910156 67.890625 328.96875 67.585938 327.644531 66.984375 L 326.289062 71.039062 C 327.648438 71.640625 329.085938 72.097656 330.59375 72.398438 C 332.105469 72.703125 333.765625 72.855469 335.578125 72.855469 C 339.582031 72.855469 342.503906 72.199219 344.355469 70.894531 C 346.203125 69.589844 347.132812 67.75 347.132812 65.367188 C 347.132812 63.890625 346.746094 62.671875 345.96875 61.707031 C 345.195312 60.746094 344.222656 59.921875 343.054688 59.242188 "/>
<path style=" stroke:none;fill-rule:nonzero;fill:rgb(100%,100%,100%);fill-opacity:1;" d="M 106.378906 49.476562 C 102.96875 53.355469 103.050781 58.136719 103.105469 62.222656 L 103.117188 72.222656 L 107.785156 72.222656 L 107.773438 62.160156 C 107.726562 58.792969 107.660156 55.089844 109.882812 52.5625 C 112.464844 49.625 116.71875 48.867188 121.527344 50.847656 L 123.53125 46.613281 C 116.882812 43.878906 110.277344 45.042969 106.378906 49.476562 "/>
<path style=" stroke:none;fill-rule:nonzero;fill:rgb(100%,100%,100%);fill-opacity:1;" d="M 243.78125 68.644531 C 243.058594 68.644531 242.441406 68.550781 241.914062 68.363281 C 241.382812 68.175781 240.9375 67.820312 240.582031 67.3125 C 240.222656 66.804688 239.957031 66.132812 239.785156 65.300781 C 239.617188 64.472656 239.53125 63.390625 239.53125 62.066406 L 239.53125 32.917969 L 228.738281 32.917969 L 228.738281 36.886719 L 234.890625 36.886719 L 234.890625 62.070312 C 234.890625 63.851562 235.023438 65.410156 235.285156 66.75 C 235.546875 68.089844 236 69.214844 236.644531 70.125 C 237.285156 71.035156 238.15625 71.710938 239.25 72.167969 C 240.34375 72.621094 241.722656 72.847656 243.386719 72.847656 C 244.101562 72.847656 244.792969 72.789062 245.453125 72.675781 C 245.996094 72.582031 246.679688 72.472656 247.164062 72.355469 L 247.164062 68.207031 C 247.113281 68.222656 247.070312 68.238281 247.015625 68.25 C 246.074219 68.515625 244.875 68.648438 243.78125 68.648438 "/>
<path style=" stroke:none;fill-rule:nonzero;fill:rgb(100%,100%,100%);fill-opacity:1;" d="M 263.347656 68.644531 C 262.632812 68.644531 262.007812 68.550781 261.480469 68.363281 C 260.953125 68.175781 260.507812 67.820312 260.148438 67.3125 C 259.792969 66.804688 259.527344 66.132812 259.355469 65.300781 C 259.183594 64.472656 259.101562 63.390625 259.101562 62.066406 L 259.101562 45.332031 L 254.457031 45.332031 L 254.457031 62.066406 C 254.457031 63.847656 254.59375 65.402344 254.855469 66.746094 C 255.117188 68.085938 255.570312 69.210938 256.214844 70.121094 C 256.855469 71.027344 257.722656 71.707031 258.820312 72.164062 C 259.914062 72.617188 261.289062 72.839844 262.953125 72.839844 C 263.667969 72.839844 264.359375 72.785156 265.019531 72.671875 C 265.566406 72.578125 266.253906 72.464844 266.730469 72.351562 L 266.730469 68.203125 C 266.679688 68.214844 266.640625 68.234375 266.585938 68.246094 C 265.640625 68.511719 264.441406 68.644531 263.347656 68.644531 "/>
<path style=" stroke:none;fill-rule:nonzero;fill:rgb(100%,100%,100%);fill-opacity:1;" d="M 224.238281 68.644531 C 223.515625 68.644531 222.898438 68.550781 222.367188 68.363281 C 221.839844 68.175781 221.394531 67.820312 221.039062 67.3125 C 220.679688 66.804688 220.414062 66.132812 220.246094 65.300781 C 220.078125 64.472656 219.992188 63.390625 219.992188 62.066406 L 219.992188 32.917969 L 209.199219 32.917969 L 209.199219 36.886719 L 215.351562 36.886719 L 215.351562 62.070312 C 215.351562 63.851562 215.484375 65.410156 215.746094 66.75 C 216.007812 68.089844 216.460938 69.214844 217.105469 70.125 C 217.746094 71.035156 218.617188 71.710938 219.710938 72.167969 C 220.804688 72.621094 222.179688 72.847656 223.84375 72.847656 C 224.5625 72.847656 225.25 72.789062 225.914062 72.675781 C 226.457031 72.582031 227.144531 72.472656 227.621094 72.355469 L 227.621094 68.207031 C 227.574219 68.222656 227.527344 68.238281 227.476562 68.25 C 226.53125 68.515625 225.335938 68.648438 224.242188 68.648438 "/>
<path style=" stroke:none;fill-rule:nonzero;fill:rgb(100%,100%,100%);fill-opacity:1;" d="M 351.769531 77.632812 L 379.175781 77.632812 L 379.175781 81.605469 L 351.769531 81.605469 Z M 351.769531 77.632812 "/>
</g>
</svg>
